<?xml version="1.0" standalone="no"?>
<!DOCTYPE svg PUBLIC "-//W3C//DTD SVG 20010904//EN"
 "http://www.w3.org/TR/2001/REC-SVG-20010904/DTD/svg10.dtd">
<svg version="1.0" xmlns="http://www.w3.org/2000/svg"
 width="572.000000pt" height="572.000000pt" viewBox="0 0 572.000000 572.000000"
 preserveAspectRatio="xMidYMid meet">
<metadata>
Created by potrace 1.14, written by Peter Selinger 2001-2017
</metadata>
<g transform="translate(0.000000,572.000000) scale(0.100000,-0.100000)"
fill="#000000" stroke="none">
<path d="M2405 5378 c-44 -56 -98 -125 -120 -153 -71 -93 -209 -269 -225 -288
-8 -10 -23 -28 -32 -39 -10 -12 -18 -24 -18 -27 0 -3 -13 -20 -28 -37 -15 -17
-38 -46 -52 -64 -14 -18 -45 -59 -70 -90 -74 -94 -97 -123 -129 -165 -17 -22
-34 -44 -38 -50 -5 -5 -32 -40 -61 -77 -29 -36 -49 -68 -45 -70 5 -3 79 -4
166 -3 l157 1 1 -36 c0 -19 1 -714 1 -1545 l0 -1510 29 -48 c16 -26 29 -50 29
-53 0 -3 14 -26 30 -51 17 -24 30 -46 30 -49 0 -7 432 -748 444 -761 8 -9 11
706 11 2602 0 1438 0 2615 0 2615 0 0 -36 -46 -80 -102z"/>
<path d="M3740 5389 c-36 -46 -70 -91 -77 -99 -7 -8 -58 -73 -114 -145 -56
-71 -112 -143 -125 -160 -13 -16 -67 -87 -121 -156 -54 -69 -110 -141 -125
-160 -15 -19 -62 -79 -105 -134 -42 -55 -80 -102 -83 -105 -4 -4 -44 -56 -81
-105 -5 -7 46 -10 149 -9 86 0 162 -2 168 -4 9 -2 12 -518 12 -2028 0 -1114 1
-2027 3 -2029 4 -3 156 254 204 343 11 20 23 39 28 40 4 2 7 9 7 17 0 7 7 18
15 25 8 7 13 16 10 20 -3 5 -2 10 3 12 4 1 74 117 155 256 l147 254 -2 2125
-3 2126 -65 -84z"/>
<path d="M10 4070 c0 -3 42 -47 93 -98 l92 -92 -1 -1230 -1 -1231 -92 -93
c-51 -52 -89 -96 -85 -98 8 -4 918 -3 934 1 3 0 -22 27 -55 59 -33 33 -76 76
-95 96 l-35 37 -1 657 c-1 711 -4 678 51 522 15 -41 33 -91 41 -110 7 -19 36
-100 64 -180 28 -80 56 -154 61 -165 6 -12 11 -27 13 -35 2 -8 7 -26 13 -40 5
-14 22 -61 37 -105 15 -44 31 -89 36 -100 9 -19 20 -51 87 -245 14 -41 29 -79
33 -85 4 -5 11 -26 15 -45 4 -19 12 -44 18 -55 6 -11 12 -24 13 -30 1 -5 14
-44 29 -85 28 -78 45 -107 45 -76 0 10 6 32 14 49 8 18 23 59 34 92 11 33 39
112 62 175 23 63 45 126 50 140 10 32 188 535 235 665 l37 100 0 608 c1 334
-1 609 -4 612 -2 2 -21 -46 -41 -108 -19 -61 -79 -247 -133 -412 -53 -165
-112 -347 -131 -405 -19 -58 -36 -109 -37 -115 -2 -5 -6 -17 -9 -25 -4 -8 -20
-58 -36 -110 -50 -164 -48 -161 -76 -74 -9 27 -19 56 -22 64 -3 8 -7 20 -9 25
-1 6 -8 26 -15 45 -17 49 -22 64 -24 73 -2 4 -3 8 -5 10 -1 1 -3 9 -5 17 -2 8
-13 42 -25 75 -12 33 -24 67 -26 75 -5 23 -204 612 -213 635 -8 18 -135 410
-177 545 -9 30 -21 59 -26 65 -9 10 -728 15 -728 5z"/>
<path d="M4427 4067 c-9 -5 -7 -11 6 -21 9 -7 17 -17 17 -22 0 -4 18 -34 40
-65 22 -32 40 -64 40 -72 0 -12 -224 -363 -310 -487 -6 -8 -65 -97 -130 -198
l-120 -182 2 -417 3 -417 50 76 50 77 27 -45 c16 -24 28 -46 28 -49 0 -3 5
-11 10 -18 19 -21 150 -247 150 -257 0 -6 5 -10 10 -10 6 0 10 -4 10 -9 0 -4
32 -62 71 -127 40 -66 80 -132 89 -149 89 -154 254 -432 260 -438 6 -6 649
-13 709 -7 3 0 -11 15 -31 33 -79 72 -182 163 -198 174 -10 7 -57 79 -105 160
-48 82 -98 165 -111 185 -13 21 -24 40 -24 43 0 3 -8 18 -19 33 -10 15 -72
117 -136 227 -65 110 -124 210 -131 222 -8 13 -15 26 -15 30 0 5 -6 15 -13 23
-12 13 -141 229 -172 286 -6 11 -30 52 -53 92 l-43 72 33 52 c19 29 37 55 41
56 5 2 8 8 8 13 0 4 29 51 65 103 36 52 65 99 65 104 0 6 3 12 8 14 4 2 26 32
49 68 24 36 46 70 50 75 5 6 28 42 53 80 25 39 50 76 57 83 6 6 15 21 18 32 3
11 10 20 14 20 5 0 14 14 21 30 7 17 16 30 21 30 5 0 9 4 9 9 0 5 39 67 86
138 77 116 92 132 157 175 40 26 77 51 82 55 6 5 49 33 97 63 49 30 88 57 88
60 0 8 -971 6 -983 -3z"/>
<path d="M5430 1389 c0 -5 10 -9 23 -9 21 0 22 -4 22 -72 0 -39 5 -73 10 -75
6 -2 10 28 10 74 0 76 1 78 24 75 14 -2 21 0 17 7 -8 13 -106 12 -106 0z"/>
<path d="M5573 1315 c-1 -95 14 -118 19 -27 l3 57 23 -47 c12 -27 25 -48 28
-48 3 0 15 21 26 47 18 40 22 45 28 28 4 -11 4 -27 -1 -36 -4 -8 -4 -21 1 -29
5 -8 6 -18 4 -22 -3 -4 0 -8 5 -8 7 0 11 32 11 85 0 47 -4 85 -9 85 -5 0 -19
-25 -32 -55 -12 -30 -26 -55 -30 -55 -4 0 -19 25 -33 55 -14 30 -29 55 -33 55
-5 0 -9 -38 -10 -85z"/>
</g>
</svg>
